<?xml version="1.0"?>
<svg width="73" height="73" xmlns="http://www.w3.org/2000/svg" xmlns:svg="http://www.w3.org/2000/svg" version="1.1">
 <title>team-collaboration/version-control/github</title>
 <desc>Created with Sketch.</desc>
 <g class="layer">
  <title>Layer 1</title>
  <g fill="none" fill-rule="evenodd" id="team-collaboration/version-control/github">
   <g fill-rule="nonzero" id="container" transform="translate(2 2)">
    <rect fill="#000000" fill-opacity="0" height="71" id="mask" rx="14" stroke="0" stroke-width="2" width="71" x="-1" y="-1"/>
    <path d="m58.31,21.43c-2.41,-4.13 -5.68,-7.4 -9.82,-9.81c-4.13,-2.41 -8.64,-3.62 -13.53,-3.62c-4.89,0 -9.4,1.21 -13.53,3.62c-4.13,2.41 -7.4,5.68 -9.81,9.81c-2.41,4.13 -3.62,8.64 -3.62,13.53c0,5.88 1.71,11.16 5.14,15.85c3.43,4.69 7.86,7.94 13.29,9.74c0.63,0.12 1.1,0.04 1.4,-0.24c0.31,-0.28 0.46,-0.63 0.46,-1.06c0,-0.07 -0.01,-0.7 -0.02,-1.89c-0.01,-1.19 -0.01,-2.24 -0.01,-3.13l-0.81,0.14c-0.52,0.1 -1.17,0.14 -1.95,0.13c-0.78,-0.01 -1.6,-0.1 -2.44,-0.25c-0.84,-0.15 -1.63,-0.5 -2.35,-1.05c-0.73,-0.55 -1.24,-1.27 -1.55,-2.16l-0.35,-0.81c-0.23,-0.53 -0.6,-1.13 -1.1,-1.79c-0.51,-0.65 -1.02,-1.1 -1.53,-1.33l-0.25,-0.18c-0.16,-0.11 -0.31,-0.26 -0.45,-0.42c-0.14,-0.16 -0.25,-0.33 -0.32,-0.49c-0.07,-0.16 -0.01,-0.3 0.18,-0.4c0.18,-0.11 0.52,-0.16 1.02,-0.16l0.7,0.1c0.47,0.1 1.04,0.38 1.73,0.85c0.7,0.46 1.26,1.07 1.71,1.82c0.54,0.96 1.18,1.69 1.95,2.2c0.76,0.5 1.52,0.75 2.29,0.75c0.78,0 1.44,-0.06 2.01,-0.18c0.56,-0.11 1.08,-0.29 1.58,-0.52c0.21,-1.57 0.78,-2.78 1.72,-3.62c-1.34,-0.14 -2.54,-0.35 -3.6,-0.63c-1.07,-0.28 -2.17,-0.74 -3.3,-1.37c-1.14,-0.63 -2.08,-1.42 -2.83,-2.35c-0.75,-0.94 -1.36,-2.17 -1.84,-3.69c-0.48,-1.52 -0.72,-3.27 -0.72,-5.26c0,-2.84 0.92,-5.25 2.77,-7.24c-0.86,-2.13 -0.78,-4.51 0.25,-7.16c0.68,-0.21 1.68,-0.05 3.02,0.48c1.33,0.52 2.31,0.97 2.93,1.35c0.62,0.37 1.12,0.69 1.49,0.95c2.18,-0.61 4.42,-0.92 6.74,-0.92c2.32,0 4.57,0.31 6.74,0.92l1.34,-0.85c0.91,-0.56 1.99,-1.07 3.23,-1.54c1.24,-0.47 2.18,-0.6 2.84,-0.39c1.05,2.65 1.15,5.03 0.28,7.16c1.85,1.99 2.77,4.4 2.77,7.24c0,1.99 -0.24,3.75 -0.72,5.28c-0.48,1.53 -1.1,2.76 -1.86,3.69c-0.76,0.92 -1.7,1.7 -2.84,2.33c-1.13,0.63 -2.24,1.09 -3.3,1.37c-1.06,0.28 -2.26,0.49 -3.6,0.63c1.22,1.05 1.83,2.72 1.83,4.99l0,7.4c0,0.42 0.14,0.78 0.44,1.06c0.29,0.28 0.75,0.36 1.38,0.24c5.43,-1.8 9.86,-5.05 13.29,-9.74c3.43,-4.69 5.14,-9.98 5.14,-15.85c0,-4.89 -1.2,-9.4 -3.61,-13.53z" fill="#FFFFFF" id="Shape"/>
   </g>
  </g>
 </g>
</svg>